#!OML:ASF F:\VICON\USERDATA\INSTALL\rory3\rory3.ASF
:FULLY-SPECIFIED
:DEGREES


301
root 0.206724 17.9285 27.441 -4.03283 -0.667405 -6.60894
lowerback 10.4912 0.628084 5.70821
upperback 0.909377 1.64075 2.69088
thorax -4.85881 0.717494 -0.63425
lowerneck -14.5804 -3.07378 -2.08311
upperneck 20.7327 -3.99019 0.968393
head 8.96433 -1.93008 0.19898
rclavicle -2.16178e-015 -2.98177e-014
rhumerus -26.3826 -15.5205 -80.6488
rradius 26.1738
rwrist 2.80978
rhand -18.5871 22.2377
rfingers 7.12502
rthumb 7.70365 -7.60197
lclavicle -2.16178e-015 -2.98177e-014
lhumerus -31.2045 4.81157 81.6782
lradius 26.7368
lwrist 4.64235
lhand -29.4169 21.0842
lfingers 7.12502
lthumb -2.75434 51.0462
rfemur -5.39093 5.76217 35.018
rtibia 30.916
rfoot -16.963 -6.99579
rtoes 9.86662
lfemur -25.8526 4.75173 -12.3776
ltibia 64.4721
lfoot -5.7356 -3.8767
ltoes -5.44152
302
root 0.215501 17.9144 27.6106 -3.91491 -0.817712 -6.55023
lowerback 10.4087 0.699742 5.76125
upperback 0.934371 1.73012 2.62296
thorax -4.77799 0.762109 -0.745847
lowerneck -14.5481 -3.06921 -2.05105
upperneck 20.4893 -3.97786 0.92504
head 8.87295 -1.9275 0.182842
rclavicle 4.8081e-015 3.99557e-014
rhumerus -25.7656 -14.6551 -81.0294
rradius 26.8268
rwrist 2.31167
rhand -18.7164 25.3466
rfingers 7.12502
rthumb 7.57889 -4.49759
lclavicle 4.8081e-015 3.99557e-014
lhumerus -31.525 5.22895 81.4317
lradius 26.632
lwrist 4.71943
lhand -30.0009 22.2478
lfingers 7.12502
lthumb -3.31831 52.2017
rfemur -4.76953 5.74633 34.965
rtibia 30.7706
rfoot -17.4725 -6.90384
rtoes 10.1016
lfemur -26.6094 4.69103 -12.576
ltibia 62.853
lfoot -6.13226 -3.08991
ltoes -5.437
303
root 0.22622 17.8862 27.7725 -3.61708 -0.867918 -6.53311
lowerback 10.3204 0.750591 5.87621
upperback 0.884011 1.80261 2.54965
thorax -4.7718 0.794197 -0.895355
lowerneck -14.8008 -3.05826 -1.93529
upperneck 20.393 -3.93974 0.732511
head 8.87883 -1.92004 0.0998706
rclavicle -1.77664e-014 -9.93923e-015
rhumerus -25.0973 -13.6186 -81.442
rradius 27.4222
rwrist 1.45249
rhand -18.8989 23.5853
rfingers 7.12502
rthumb 7.40278 -6.26522
lclavicle -1.77664e-014 -9.93923e-015
lhumerus -31.7488 5.16934 81.4265
lradius 26.5672
lwrist 5.55385
lhand -30.7697 20.3981
lfingers 7.12502
lthumb -4.06078 50.3392
rfemur -4.36373 5.64417 34.9286
rtibia 30.5538
rfoot -17.8345 -6.84016
rtoes 9.68247
lfemur -26.9403 4.66169 -12.708
ltibia 61.3766
lfoot -7.07636 -2.00518
ltoes -5.4954
304
root 0.234621 17.8933 27.9424 -3.43843 -1.07325 -6.73523
lowerback 10.2591 0.843925 6.15095
upperback 0.816864 1.95803 2.57859
thorax -4.79151 0.863762 -1.03895
lowerneck -14.4495 -3.0485 -1.9781
upperneck 19.9977 -3.90719 0.690326
head 8.67917 -1.91574 0.105528
rclavicle 2.09966e-015 2.38542e-015
rhumerus -24.6416 -12.2682 -81.7666
rradius 28.1143
rwrist 0.44164
rhand -19.1137 22.8723
rfingers 7.12502
rthumb 7.19542 -6.98542
lclavicle 2.09966e-015 2.38542e-015
lhumerus -31.926 5.60528 81.1955
lradius 25.9858
lwrist 5.35596
lhand -30.8135 20.9519
lfingers 7.12502
lthumb -4.10305 50.8922
rfemur -3.73217 5.69703 35.153
rtibia 30.2723
rfoot -18.0771 -6.76983
rtoes 9.93438
lfemur -27.9961 4.57548 -12.6095
ltibia 59.103
lfoot -6.67035 -1.46595
ltoes -4.42089
305
root 0.24338 17.8804 28.1118 -3.45065 -1.31266 -6.90538
lowerback 10.2707 0.939766 6.3469
upperback 0.884729 2.10686 2.63064
thorax -4.71263 0.936776 -1.11364
lowerneck -14.3499 -3.01931 -2.02451
upperneck 19.7996 -3.84569 0.650579
head 8.59301 -1.89544 0.110278
rclavicle -2.49847e-014 -2.52457e-014
rhumerus -24.0897 -11.3517 -81.948
rradius 28.6636
rwrist 0.01509
rhand -19.2773 22.7158
rfingers 7.12502
rthumb 7.03749 -7.14717
lclavicle -2.49847e-014 -2.52457e-014
lhumerus -31.9752 6.39982 80.7363
lradius 25.1872
lwrist 4.19511
lhand -29.9466 24.0092
lfingers 7.12502
lthumb -3.26586 53.9639
rfemur -2.90216 5.75774 35.3811
rtibia 29.9447
rfoot -18.2068 -6.74795
rtoes 10.5168
lfemur -28.1702 4.50191 -12.4306
ltibia 57.0892
lfoot -6.93707 -0.570351
ltoes -4.39245
306
root 0.251663 17.8757 28.2849 -3.42244 -1.4647 -6.80415
lowerback 10.1811 1.02702 6.2899
upperback 1.02934 2.1973 2.59261
thorax -4.50497 0.990436 -1.12999
lowerneck -14.6927 -3.02651 -1.94382
upperneck 19.832 -3.83839 0.51841
head 8.66176 -1.89784 0.0476546
rclavicle 9.87711e-015 -2.78299e-015
rhumerus -23.5165 -10.6635 -82.1242
rradius 29.3605
rwrist -0.331131
rhand -19.2707 22.5744
rfingers 7.12502
rthumb 7.04388 -7.28836
lclavicle 9.87711e-015 -2.78299e-015
lhumerus -32.067 7.04124 80.4348
lradius 24.8616
lwrist 3.73501
lhand -29.6403 25.4008
lfingers 7.12502
lthumb -2.9701 55.3598
rfemur -2.09043 5.87838 35.3316
rtibia 29.5351
rfoot -18.3658 -6.84488
rtoes 10.8351
lfemur -28.3253 4.34605 -12.5744
ltibia 54.5489
lfoot -6.85332 0.121035
ltoes -4.96258
307
root 0.26158 17.8785 28.4648 -3.25406 -1.61495 -6.6397
lowerback 9.99687 1.11112 6.22508
upperback 1.02002 2.282 2.50687
thorax -4.40517 1.03546 -1.18973
lowerneck -14.8206 -3.04416 -1.99945
upperneck 19.9476 -3.85954 0.570094
head 8.72705 -1.90548 0.0686501
rclavicle 2.83144e-014 3.73715e-014
rhumerus -23.1913 -10.0344 -82.2254
rradius 30.0035
rwrist -0.59514
rhand -19.0949 22.8053
rfingers 7.12502
rthumb 7.21356 -7.05176
lclavicle 2.83144e-014 3.73715e-014
lhumerus -32.4783 7.59158 80.1395
lradius 24.6696
lwrist 3.80287
lhand -30.017 24.9726
lfingers 7.12502
lthumb -3.33391 54.9263
rfemur -1.46326 5.89296 35.1367
rtibia 29.2771
rfoot -18.7435 -6.80772
rtoes 10.9672
lfemur -28.5742 4.10869 -12.7877
ltibia 52.0361
lfoot -7.04487 0.890932
ltoes -5.62432
308
root 0.26856 17.861 28.6381 -2.98301 -1.75812 -6.53464
lowerback 9.86268 1.20339 6.10767
upperback 0.94002 2.38258 2.45814
thorax -4.41026 1.08546 -1.18549
lowerneck -14.8916 -3.06158 -1.95209
upperneck 19.9441 -3.88156 0.516445
head 8.73687 -1.91756 0.0390163
rclavicle -1.86733e-014 -4.17448e-014
rhumerus -22.7035 -9.22081 -82.3662
rradius 30.3692
rwrist -1.14779
rhand -18.8572 23.26
rfingers 7.12502
rthumb 7.44294 -6.58904
lclavicle -1.86733e-014 -4.17448e-014
lhumerus -32.9292 8.02652 79.8191
lradius 24.3652
lwrist 3.70388
lhand -30.5373 21.7822
lfingers 7.12502
lthumb -3.83634 51.7274
rfemur -0.971855 5.99381 35.0471
rtibia 28.9848
rfoot -19.0809 -6.92742
rtoes 11.1254
lfemur -28.7817 3.70977 -12.8623
ltibia 49.373
lfoot -7.16097 1.82202
ltoes -5.96149
309
root 0.268799 17.8306 28.8024 -2.7893 -2.06077 -6.80285
lowerback 9.84287 1.31734 6.27774
upperback 0.981553 2.55055 2.51673
thorax -4.34044 1.16828 -1.23928
lowerneck -15.2637 -3.07821 -1.92667
upperneck 19.981 -3.91953 0.587724
head 8.81878 -1.92367 0.0479134
rclavicle -1.88348e-014 -1.80894e-014
rhumerus -21.8547 -8.56805 -82.5387
rradius 30.5057
rwrist -1.50483
rhand -18.7291 23.5077
rfingers 7.12502
rthumb 7.56668 -6.33699
lclavicle -1.88348e-014 -1.80894e-014
lhumerus -33.0148 8.74306 79.4412
lradius 23.8805
lwrist 3.37679
lhand -31.1001 18.5158
lfingers 7.12502
lthumb -4.3798 48.4505
rfemur -0.39554 6.44608 35.4858
rtibia 28.6052
rfoot -19.2442 -7.31375
rtoes 10.5543
lfemur -28.9129 3.43457 -12.4139
ltibia 46.6235
lfoot -6.39372 2.39758
ltoes -2.35425
310
root 0.274719 17.8191 28.9677 -2.57874 -2.2969 -7.27072
lowerback 9.68226 1.42424 6.75162
upperback 0.998068 2.73177 2.60931
thorax -4.20446 1.25437 -1.42309
lowerneck -14.8731 -3.12827 -1.92401
upperneck 19.4501 -4.00981 0.677626
head 8.56996 -1.96014 0.0779706
rclavicle -3.6887e-014 -2.18663e-014
rhumerus -21.2048 -8.23 -82.5925
rradius 30.8101
rwrist -1.536
rhand -18.6993 23.83
rfingers 7.12502
rthumb 7.59535 -6.0136
lclavicle -3.6887e-014 -2.18663e-014
lhumerus -33.1011 9.30979 79.102
lradius 23.3255
lwrist 3.06377
lhand -30.8563 17.8298
lfingers 7.12502
lthumb -4.14434 47.7693
rfemur 0.198836 6.65481 36.0636
rtibia 28.2101
rfoot -19.4064 -7.52242
rtoes 10.0459
lfemur -29.1675 3.20171 -11.8013
ltibia 43.805
lfoot -5.65317 2.71229
ltoes -0.439338
311
root 0.286226 17.8183 29.1441 -2.31102 -2.44457 -7.27429
lowerback 9.437 1.554 6.85351
upperback 0.938209 2.89348 2.56319
thorax -4.11115 1.33411 -1.53957
lowerneck -14.5922 -3.14165 -1.94313
upperneck 19.2038 -4.04898 0.785413
head 8.43911 -1.9711 0.119396
rclavicle 3.81418e-015 9.93923e-016
rhumerus -20.7897 -8.1352 -82.5113
rradius 31.2162
rwrist -1.485
rhand -18.5836 24.1484
rfingers 7.12502
rthumb 7.70709 -5.69111
lclavicle 3.81418e-015 9.93923e-016
lhumerus -33.3484 9.76942 78.7723
lradius 22.8379
lwrist 2.58488
lhand -30.1635 17.9473
lfingers 7.12502
lthumb -3.47536 47.8987
rfemur 0.819336 6.66676 36.0369
rtibia 27.7667
rfoot -19.8007 -7.521
rtoes 9.86786
lfemur -29.2932 2.76924 -11.7109
ltibia 40.885
lfoot -6.10326 3.2515
ltoes -3.45296
312
root 0.297427 17.8055 29.3228 -2.13955 -2.50094 -7.17449
lowerback 9.39142 1.61925 6.7917
upperback 0.839602 2.97294 2.50018
thorax -4.18292 1.36987 -1.58056
lowerneck -14.8268 -3.09795 -1.84962
upperneck 19.5384 -4.00703 0.765561
head 8.59172 -1.94383 0.0956428
rclavicle -2.26987e-014 5.96354e-015
rhumerus -20.4612 -7.68893 -82.5059
rradius 31.5082
rwrist -1.70896
rhand -18.8341 24.4573
rfingers 7.12502
rthumb 7.46531 -5.39093
lclavicle -2.26987e-014 5.96354e-015
lhumerus -33.7041 9.96225 78.5859
lradius 22.4901
lwrist 2.59216
lhand -30.2847 18.4982
lfingers 7.12502
lthumb -3.59242 48.4477
rfemur 1.58624 6.61192 35.9342
rtibia 27.2424
rfoot -20.1812 -7.57613
rtoes 9.25733
lfemur -29.1907 2.04743 -11.6719
ltibia 37.8835
lfoot -6.1113 4.04281
ltoes -4.92605
313
root 0.310869 17.7873 29.4941 -1.84568 -2.53941 -7.23607
lowerback 9.25649 1.66551 6.95007
upperback 0.694832 3.04481 2.44402
thorax -4.24293 1.39738 -1.73294
lowerneck -14.7621 -3.11218 -1.70306
upperneck 19.5625 -4.0352 0.636504
head 8.58228 -1.96007 0.0257873
rclavicle -1.44243e-014 -9.34288e-015
rhumerus -20.1553 -7.30319 -82.5425
rradius 31.76
rwrist -1.95174
rhand -18.9925 24.5039
rfingers 7.12502
rthumb 7.3124 -5.34978
lclavicle -1.44243e-014 -9.34288e-015
lhumerus -33.9737 9.72004 78.6221
lradius 22.0072
lwrist 3.62121
lhand -31.6261 17.4591
lfingers 7.12502
lthumb -4.88769 47.3827
rfemur 2.14472 6.51438 35.9806
rtibia 26.7842
rfoot -20.3977 -7.58424
rtoes 8.95773
lfemur -29.1616 1.19291 -11.3682
ltibia 34.7123
lfoot -6.10166 4.66248
ltoes -5.79991
314
root 0.317175 17.7755 29.6639 -1.58146 -2.78501 -7.40026
lowerback 9.16918 1.77701 7.08278
upperback 0.66616 3.20075 2.46527
thorax -4.20612 1.47271 -1.79957
lowerneck -15.0011 -3.14999 -1.74702
upperneck 19.7046 -4.09138 0.711928
head 8.67742 -1.97974 0.0464146
rclavicle -2.24254e-014 1.07344e-014
rhumerus -19.6363 -7.00777 -82.5568
rradius 32.05
rwrist -2.1199
rhand -18.9364 24.7729
rfingers 7.12502
rthumb 7.36658 -5.0788
lclavicle -2.24254e-014 1.07344e-014
lhumerus -34.0185 9.70336 78.7163
lradius 21.322
lwrist 4.74523
lhand -33.677 13.1946
lfingers 7.12502
lthumb -6.86777 43.0632
rfemur 2.69056 6.66225 36.1977
rtibia 26.3971
rfoot -20.5528 -7.69963
rtoes 8.84368
lfemur -28.9817 0.478971 -10.8463
ltibia 31.4031
lfoot -6.10896 5.25845
ltoes -7.04681
315
root 0.322898 17.7623 29.8453 -1.37276 -3.00198 -7.31216
lowerback 9.03182 1.88589 6.9618
upperback 0.679445 3.31632 2.40469
thorax -4.10882 1.53519 -1.80265
lowerneck -15.2907 -3.14702 -1.77388
upperneck 19.8322 -4.12189 0.909996
head 8.77922 -1.9725 0.107974
rclavicle -5.80203e-015 6.95746e-015
rhumerus -19.2252 -7.07009 -82.5824
rradius 32.6027
rwrist -2.01707
rhand -18.7395 24.5039
rfingers 7.12502
rthumb 7.55663 -5.34112
lclavicle -5.80203e-015 6.95746e-015
lhumerus -34.2749 9.99305 78.5086
lradius 21.0905
lwrist 4.60897
lhand -33.9929 12.5291
lfingers 7.12502
lthumb -7.17267 42.3876
rfemur 3.3386 6.72574 36.122
rtibia 25.9788
rfoot -20.7242 -7.84639
rtoes 8.68962
lfemur -28.6808 -0.480605 -10.5481
ltibia 28.0457
lfoot -6.19538 6.19544
ltoes -8.00848
